<svg xmlns="http://www.w3.org/2000/svg" xmlns:xlink="http://www.w3.org/1999/xlink" version="1.1" viewBox="158 122.5 196 193.5">
<g id="surface1">
<path style=" stroke:none;fill-rule:nonzero;fill:rgb(100%,100%,100%);fill-opacity:1;" d="M 243.800781 124.101562 C 243.449219 125 241.5 130.449219 239.5 136.25 C 237.5 142 235.601562 147 235.300781 147.300781 C 235 147.601562 233.050781 148.5 231 149.25 C 228.949219 150.050781 225.351562 151.5 223.050781 152.601562 C 220.75 153.648438 218.5 154.5 218.050781 154.5 C 217.601562 154.5 210.949219 152.699219 203.25 150.5 C 195.550781 148.300781 189 146.5 188.699219 146.5 C 188.398438 146.5 185.648438 149.398438 182.601562 153 L 177.101562 159.5 L 182.550781 173.101562 C 185.550781 180.601562 188 187.050781 188 187.5 C 188 187.898438 187 190.699219 185.851562 193.75 L 183.699219 199.25 L 173.699219 203.101562 C 168.25 205.199219 162.449219 207.449219 160.851562 208 L 158 209.050781 L 158.101562 219.648438 L 158.25 230.199219 L 162 231.601562 C 164.050781 232.398438 169.851562 234.648438 174.851562 236.601562 L 183.949219 240.148438 L 185.949219 245.199219 C 187.101562 247.949219 188 250.5 188 250.800781 C 188 251.101562 185.75 257.148438 182.949219 264.25 C 180.199219 271.398438 177.898438 277.351562 177.851562 277.550781 C 177.75 277.898438 188.300781 291.300781 189.050781 291.75 C 189.449219 292 208.949219 287.199219 215.199219 285.300781 C 217.601562 284.550781 217.648438 284.550781 220.949219 286.199219 C 222.75 287.101562 226.5 288.699219 229.25 289.75 C 232 290.75 234.601562 291.75 235 292 C 235.398438 292.199219 236.949219 295.601562 238.398438 299.550781 C 239.851562 303.5 241.851562 308.851562 242.800781 311.398438 L 244.601562 316 L 256.351562 315.898438 L 268.101562 315.75 L 272.398438 303.949219 L 276.699219 292.148438 L 279.699219 291.101562 C 281.398438 290.449219 285.398438 288.75 288.699219 287.300781 C 293.851562 284.949219 294.851562 284.648438 296.199219 285.050781 C 300.851562 286.449219 322.101562 292 322.648438 292 C 323.050781 292 325.851562 288.75 328.898438 284.800781 L 334.449219 277.648438 L 331.550781 270.449219 C 329.949219 266.5 327.550781 260.398438 326.25 256.949219 L 323.851562 250.601562 L 326.101562 245.199219 L 328.300781 239.800781 L 338.300781 235.898438 C 343.75 233.75 349.398438 231.648438 350.75 231.199219 C 352.148438 230.75 353.398438 230.101562 353.601562 229.800781 C 353.800781 229.5 354 224.75 354 219.25 L 354 209.25 L 347.398438 206.75 C 343.75 205.398438 337.851562 203.148438 334.300781 201.75 L 327.898438 199.148438 L 325.949219 194 C 323.851562 188.5 323.75 187.699219 324.5 185.898438 C 324.75 185.25 327.199219 179.050781 330 172.101562 L 335 159.449219 L 331.300781 155.101562 C 329.25 152.699219 326.699219 149.75 325.601562 148.550781 L 323.699219 146.300781 L 308.5 150.449219 L 293.351562 154.601562 L 290.050781 153.050781 C 288.25 152.199219 284.398438 150.550781 281.550781 149.351562 L 276.351562 147.25 L 272.050781 134.898438 L 267.75 122.5 L 244.449219 122.5 Z M 265.351562 165.75 C 282.148438 168.449219 296.601562 179.25 304.25 194.75 C 308.351562 203.050781 309.550781 207.949219 309.851562 218 C 310.050781 225.101562 309.949219 226.949219 309.050781 231.398438 C 306.648438 242.898438 301.449219 252.148438 292.800781 260.398438 C 286.25 266.601562 279.550781 270.398438 270.851562 272.800781 C 264.601562 274.550781 253.351562 275 246.75 273.800781 C 234.75 271.550781 225.75 266.699219 217.148438 257.851562 C 210.449219 250.898438 206.101562 243.25 203.5 233.75 C 201.800781 227.601562 201.550781 215.550781 202.949219 208.601562 C 206.050781 193.601562 215.601562 180.148438 228.5 172.5 C 239.148438 166.148438 252.648438 163.699219 265.351562 165.75 Z M 265.351562 165.75 "/>
<path style=" stroke:none;fill-rule:nonzero;fill:rgb(100%,100%,100%);fill-opacity:1;" d="M 249.550781 183.550781 C 234.800781 186 223.898438 197.050781 221.25 212.300781 C 219.949219 219.800781 220.550781 227.449219 222.949219 234.199219 C 226.25 243.550781 234.550781 251.648438 244.199219 254.851562 C 247.949219 256.101562 248.851562 256.199219 256.25 256.199219 C 263.550781 256.199219 264.601562 256.101562 268.25 254.851562 C 273.851562 253 278.050781 250.351562 282.050781 246.148438 C 287.75 240.101562 290.5 233.101562 291.25 222.398438 C 291.550781 218.300781 291.5 217.300781 290.800781 216.25 L 289.949219 215 L 272.851562 215.101562 L 255.75 215.25 L 255.601562 220.851562 C 255.5 226.101562 255.550781 226.5 256.5 227 C 257.199219 227.398438 260.300781 227.550781 265.398438 227.449219 L 273.25 227.351562 L 273.101562 228.800781 C 272.851562 230.949219 271.148438 234.550781 269.601562 236.148438 C 262.800781 243.351562 247.050781 241.851562 241.300781 233.550781 C 236.75 227 236 216.398438 239.5 209.148438 C 242 204.101562 246.550781 201 253.25 199.898438 C 259.199219 198.898438 266.851562 200.949219 270.148438 204.398438 L 271.5 205.851562 L 279.648438 205.601562 C 284.101562 205.5 288.148438 205.148438 288.648438 204.898438 C 291.449219 203.449219 284.75 194.101562 277.449219 189.199219 C 269.75 184.101562 259.199219 181.949219 249.550781 183.550781 Z M 249.550781 183.550781 "/>
</g>
</svg>